<?xml version="1.0" encoding="utf-8"?>
<!-- Generator: Adobe Illustrator 26.0.3, SVG Export Plug-In . SVG Version: 6.00 Build 0)  -->
<svg version="1.1" id="Calque_1" xmlns="http://www.w3.org/2000/svg" xmlns:xlink="http://www.w3.org/1999/xlink" x="0px" y="0px"
	 viewBox="0 0 32 32" style="enable-background:new 0 0 32 32;" xml:space="preserve">
<style type="text/css">
	.st0{fill:#004976;}
	.st1{fill:#0F1127;}
	.st2{fill:#0080FF;}
	.st3{fill:url(#SVGID_1_);}
	.st4{fill:#0169C2;}
	.st5{fill:url(#SVGID_00000049199446514052274230000012171861163190741673_);}
</style>
<g>
	<g>
		<g>
			<g>
				<rect x="11.55" y="28.56" class="st0" width="7.37" height="2.03"/>
			</g>
			<path class="st1" d="M17.99,10.16c-1.14,0-2.07-0.93-2.07-2.07c0-1.41-1.14-2.55-2.55-2.55c-1.14,0-2.07-0.93-2.07-2.07
				c0-1.14,0.93-2.07,2.07-2.07c1.14,0,2.07,0.93,2.07,2.07c0,1.41,1.14,2.55,2.55,2.55c1.14,0,2.07,0.93,2.07,2.07
				C20.06,9.23,19.13,10.16,17.99,10.16L17.99,10.16z"/>
			<path class="st0" d="M17.99,19.4c-1.14,0-2.07-0.93-2.07-2.07c0-1.14,0.93-2.07,2.07-2.07c1.41,0,2.55-1.14,2.55-2.55
				c0-1.14,0.93-2.07,2.07-2.07c1.41,0,2.55-1.14,2.55-2.55c0-1.41-1.14-2.55-2.55-2.55c-1.14,0-2.07-0.93-2.07-2.07
				c0-1.14,0.93-2.07,2.07-2.07c1.14,0,2.07,0.93,2.07,2.07c0,1.41,1.14,2.55,2.55,2.55c1.14,0,2.07,0.93,2.07,2.07
				c0,1.14-0.93,2.07-2.07,2.07c-1.41,0-2.55,1.14-2.55,2.55c0,1.14-0.93,2.07-2.07,2.07c-1.41,0-2.55,1.14-2.55,2.55
				C20.06,18.47,19.13,19.4,17.99,19.4L17.99,19.4z"/>
			<g>
				<g>
					<path class="st2" d="M27.23,10.61c-0.59,0-1.12,0.25-1.49,0.65v13.38h-21v-16h6.14c-0.05-0.2-0.08-0.4-0.08-0.61
						c0-0.52,0.16-1.01,0.43-1.42H4.82c-1.17,0-2.12,0.95-2.12,2.12v15.83c0,1.17,0.95,2.12,2.12,2.12h20.83
						c1.17,0,2.12-0.95,2.12-2.12V10.55C27.59,10.59,27.41,10.61,27.23,10.61z"/>
				</g>
				<linearGradient id="SVGID_1_" gradientUnits="userSpaceOnUse" x1="11.3056" y1="10.4021" x2="24.6778" y2="10.4021">
					<stop  offset="0" style="stop-color:#073E98"/>
					<stop  offset="0.2452" style="stop-color:#0E56A2"/>
					<stop  offset="0.7602" style="stop-color:#2193BB"/>
					<stop  offset="1" style="stop-color:#2AB2C8"/>
				</linearGradient>
				<path class="st3" d="M18.03,14.78c-1.15,0-2.12-0.9-2.1-2.03c0.02-1.39-1.08-2.53-2.45-2.58c-1.15-0.04-2.16-0.9-2.16-2.06
					c-0.01-1.27,1.14-2.28,2.44-2.05c0.98,0.17,1.69,1.06,1.69,2.05c0.01,1.84,1.98,3.23,3.92,2.17c0.7-0.38,1.18-1.38,1.17-2.17
					c-0.01-1.26,1.11-2.26,2.41-2.05c0.9,0.14,1.61,0.9,1.72,1.8c0.14,1.25-0.84,2.31-2.05,2.31c-1.42,0-2.58,1.17-2.55,2.6
					c0.02,1.1-0.81,2.02-1.91,2.02H18.03z"/>
			</g>
		</g>
	</g>
</g>
</svg>
